<svg width="504" height="483" viewBox="0 0 504 483" fill="none" xmlns="http://www.w3.org/2000/svg">
<path d="M0 241.5C0 289.264 14.7795 335.956 42.4697 375.67C70.1598 415.385 109.517 446.338 155.564 464.617C201.611 482.895 252.28 487.678 301.163 478.36C350.046 469.041 394.948 446.041 430.191 412.266C465.434 378.492 489.434 335.461 499.158 288.614C508.881 241.768 503.891 193.21 484.818 149.082C465.744 104.954 433.445 67.2365 392.004 40.7001C350.563 14.1637 301.841 0 252 0V73.3254C286.708 73.3254 320.636 83.1887 349.495 101.668C378.354 120.147 400.846 146.413 414.128 177.142C427.411 207.872 430.886 241.687 424.115 274.309C417.343 306.932 400.63 336.898 376.088 360.417C351.545 383.937 320.277 399.954 286.236 406.443C252.195 412.932 216.91 409.602 184.844 396.873C152.778 384.144 125.371 362.589 106.088 334.933C86.8056 307.277 76.5135 274.762 76.5135 241.5H0Z" fill="url(#paint0_linear_89_55)"/>
<defs>
<linearGradient id="paint0_linear_89_55" x1="143.646" y1="483" x2="253.087" y2="0.246529" gradientUnits="userSpaceOnUse">
<stop stop-color="#EA8F2D"/>
<stop offset="1" stop-color="#FFD09D" stop-opacity="0"/>
</linearGradient>
</defs>
</svg>
