<svg width="18" height="31" viewBox="0 0 18 31" fill="none" xmlns="http://www.w3.org/2000/svg">
<g clip-path="url(#clip0_604_43)">
<path d="M8.90036 4.04439C13.5236 4.05536 17.1427 7.0066 17.8433 11.2597C18.143 13.0846 17.7946 14.829 16.8167 16.4272C14.5351 20.172 12.2497 23.9095 9.96062 27.6506C9.42862 28.521 8.69805 28.521 8.16604 27.658C5.88816 23.9314 3.59904 20.2122 1.3399 16.4747C-1.55241 11.6913 1.27246 5.53647 6.91845 4.27844C7.63404 4.12119 8.34962 4.03342 8.90036 4.04439ZM1.97306 12.5726C1.94683 13.5491 2.25404 14.595 2.84225 15.5568C4.83165 18.8225 6.83603 22.081 8.82543 25.3504C9.02774 25.6831 9.11016 25.6722 9.30498 25.3504C11.2981 22.0663 13.3175 18.7969 15.3069 15.5092C16.2585 13.9404 16.4084 12.2508 15.8651 10.521C14.8461 7.30648 11.3468 5.25487 7.945 5.84732C4.39705 6.4617 1.95807 9.14232 1.97306 12.5726Z" fill="#A5ADBA"/>
<path d="M4.62964 13.4748C4.63339 11.2656 6.63586 9.44162 9.05755 9.4348C11.4942 9.42798 13.5341 11.2929 13.5079 13.5055C13.4817 15.7215 11.468 17.5387 9.0538 17.5216C6.62089 17.5046 4.6259 15.6772 4.62964 13.4748ZM9.06878 11.0508C7.60529 11.0508 6.38509 12.1725 6.40754 13.4987C6.43 14.8249 7.61651 15.8954 9.06878 15.8954C10.521 15.8954 11.7113 14.8215 11.73 13.4987C11.7487 12.169 10.5323 11.0508 9.06878 11.0508Z" fill="#A5ADBA"/>
</g>
<defs>
<clipPath id="clip0_604_43">
<rect width="17.757" height="31" fill="white" transform="translate(0.19043)"/>
</clipPath>
</defs>
</svg>
