<svg width="17" height="32" viewBox="0 0 17 32" fill="none" xmlns="http://www.w3.org/2000/svg">
<g clip-path="url(#clip0_802_472)">
<path d="M6.36318 10.7314C9.54402 10.7397 12.034 12.9932 12.5161 16.2408C12.7223 17.6342 12.4826 18.9662 11.8098 20.1865C10.24 23.0459 8.66762 25.8998 7.09266 28.7564C6.72663 29.421 6.22399 29.421 5.85796 28.762C4.29074 25.9165 2.71579 23.0766 1.16146 20.2228C-0.8285 16.5703 1.11506 11.8707 4.9996 10.9101C5.49193 10.79 5.98427 10.723 6.36318 10.7314ZM1.59708 17.2433C1.57904 17.9888 1.79041 18.7875 2.1951 19.5219C3.56384 22.0155 4.94289 24.5036 6.31163 27C6.45082 27.2541 6.50753 27.2457 6.64157 27C8.01289 24.4924 9.40225 21.996 10.771 19.4856C11.4257 18.2876 11.5288 16.9975 11.1551 15.6767C10.4539 13.2222 8.0464 11.6556 5.70588 12.108C3.26483 12.5771 1.58677 14.624 1.59708 17.2433Z" fill="black"/>
<path d="M3.42481 16.8366C3.42738 15.1497 4.80512 13.757 6.47128 13.7518C8.14774 13.7466 9.55123 15.1705 9.5332 16.86C9.51518 18.5521 8.12972 19.9397 6.46871 19.9266C4.79482 19.9136 3.42223 18.5183 3.42481 16.8366ZM6.47901 14.9857C5.4721 14.9857 4.63258 15.8422 4.64803 16.8548C4.66348 17.8675 5.47983 18.6849 6.47901 18.6849C7.47819 18.6849 8.2971 17.8649 8.30998 16.8548C8.32286 15.8396 7.48591 14.9857 6.47901 14.9857Z" fill="black"/>
</g>
<defs>
<clipPath id="clip0_802_472">
<rect width="16.2895" height="31.561" fill="white" transform="translate(0.370605 0.439026)"/>
</clipPath>
</defs>
</svg>
