<svg width="17" height="32" viewBox="0 0 17 32" fill="none" xmlns="http://www.w3.org/2000/svg">
<g clip-path="url(#clip0_802_510)">
<path d="M6.36318 10.3178C9.54402 10.3262 12.034 12.5797 12.5161 15.8273C12.7223 17.2207 12.4826 18.5527 11.8098 19.773C10.24 22.6324 8.66762 25.4863 7.09266 28.3429C6.72663 29.0075 6.22399 29.0075 5.85796 28.3485C4.29074 25.503 2.71579 22.6631 1.16146 19.8093C-0.8285 16.1568 1.11506 11.4571 4.9996 10.4966C5.49193 10.3765 5.98427 10.3095 6.36318 10.3178ZM1.59708 16.8298C1.57904 17.5753 1.79041 18.374 2.1951 19.1084C3.56384 21.602 4.94289 24.09 6.31163 26.5865C6.45082 26.8406 6.50753 26.8322 6.64157 26.5865C8.01289 24.0789 9.40225 21.5825 10.771 19.0721C11.4257 17.8741 11.5288 16.584 11.1551 15.2632C10.4539 12.8087 8.0464 11.2421 5.70588 11.6945C3.26483 12.1636 1.58677 14.2105 1.59708 16.8298Z" fill="black"/>
<path d="M3.42481 16.4231C3.42738 14.7362 4.80512 13.3435 6.47128 13.3383C8.14774 13.3331 9.55123 14.757 9.5332 16.4465C9.51518 18.1386 8.12972 19.5262 6.46871 19.5131C4.79482 19.5001 3.42223 18.1048 3.42481 16.4231ZM6.47901 14.5722C5.4721 14.5722 4.63258 15.4287 4.64803 16.4413C4.66348 17.454 5.47983 18.2714 6.47901 18.2714C7.47819 18.2714 8.2971 17.4514 8.30998 16.4413C8.32286 15.4261 7.48591 14.5722 6.47901 14.5722Z" fill="black"/>
</g>
<defs>
<clipPath id="clip0_802_510">
<rect width="16.2895" height="31.561" fill="white" transform="translate(0.370605 0.0256348)"/>
</clipPath>
</defs>
</svg>
