<svg width="17" height="33" viewBox="0 0 17 33" fill="none" xmlns="http://www.w3.org/2000/svg">
<g clip-path="url(#clip0_802_491)">
<path d="M6.36318 11.0246C9.54402 11.033 12.034 13.2865 12.5161 16.5341C12.7223 17.9275 12.4826 19.2595 11.8098 20.4798C10.24 23.3392 8.66762 26.193 7.09266 29.0497C6.72663 29.7143 6.22399 29.7143 5.85796 29.0553C4.29074 26.2098 2.71579 23.3699 1.16146 20.5161C-0.8285 16.8636 1.11506 12.1639 4.9996 11.2033C5.49193 11.0833 5.98427 11.0163 6.36318 11.0246ZM1.59708 17.5365C1.57904 18.2821 1.79041 19.0808 2.1951 19.8152C3.56384 22.3088 4.94289 24.7968 6.31163 27.2933C6.45082 27.5474 6.50753 27.539 6.64157 27.2933C8.01289 24.7857 9.40225 22.2892 10.771 19.7789C11.4257 18.5809 11.5288 17.2908 11.1551 15.97C10.4539 13.5155 8.0464 11.9489 5.70588 12.4013C3.26483 12.8704 1.58677 14.9173 1.59708 17.5365Z" fill="black"/>
<path d="M3.42481 17.1299C3.42738 15.443 4.80512 14.0503 6.47128 14.0451C8.14774 14.0399 9.55123 15.4638 9.5332 17.1533C9.51518 18.8454 8.12972 20.2329 6.46871 20.2199C4.79482 20.2069 3.42223 18.8116 3.42481 17.1299ZM6.47901 15.279C5.4721 15.279 4.63258 16.1355 4.64803 17.1481C4.66348 18.1608 5.47983 18.9782 6.47901 18.9782C7.47819 18.9782 8.2971 18.1582 8.30998 17.1481C8.32286 16.1328 7.48591 15.279 6.47901 15.279Z" fill="black"/>
</g>
<defs>
<clipPath id="clip0_802_491">
<rect width="16.2895" height="31.561" fill="white" transform="translate(0.370605 0.732422)"/>
</clipPath>
</defs>
</svg>
