<svg width="17" height="17" viewBox="0 0 17 17" fill="none" xmlns="http://www.w3.org/2000/svg">
<g clip-path="url(#clip0_802_445)">
<path d="M8.65097 16.511C6.86257 16.511 5.07417 16.5146 3.28742 16.5093C2.08634 16.5075 1.15988 15.6802 0.948113 14.4243C0.924951 14.2867 0.923297 14.1421 0.923297 14.001C0.921643 10.1838 0.919988 6.3649 0.923297 2.54422C0.923297 1.27066 1.69259 0.289918 2.8639 0.0606074C2.99956 0.0341485 3.14018 0.0306206 3.27915 0.0306206C5.56222 0.0270927 7.84528 0.0341485 10.13 0.0235649C10.6726 0.0218009 10.977 0.46102 10.9721 0.852612C10.9671 1.28478 10.6544 1.64285 10.2508 1.66755C10.1416 1.6746 10.034 1.67108 9.92485 1.67108C7.74436 1.67108 5.56387 1.67108 3.38338 1.67108C2.75967 1.67108 2.46354 1.98682 2.46354 2.65359C2.46354 6.40194 2.46354 10.1503 2.46354 13.9004C2.46354 14.5513 2.76464 14.8706 3.37676 14.8706C6.89235 14.8706 10.4079 14.8706 13.9235 14.8706C14.5456 14.8706 14.8401 14.5531 14.8401 13.8845C14.8401 11.4891 14.8467 9.09193 14.8351 6.69652C14.8318 6.11971 15.247 5.78456 15.6292 5.79691C16.0263 5.81102 16.372 6.14088 16.3737 6.56422C16.3786 9.13427 16.3935 11.7043 16.3621 14.2744C16.3472 15.4262 15.3364 16.4581 14.2494 16.5004C13.5132 16.5287 12.7754 16.511 12.0392 16.5128C10.9109 16.5128 9.78092 16.511 8.65097 16.511Z" fill="#0045AC"/>
<path d="M13.6958 1.66755C13.5452 1.66755 13.3947 1.6746 13.2458 1.66578C12.8305 1.64462 12.5195 1.28477 12.5228 0.838499C12.5261 0.402808 12.8371 0.0376741 13.2458 0.0323823C14.0498 0.0217987 14.8522 0.0217987 15.6562 0.0323823C16.0516 0.0376741 16.3709 0.376349 16.3759 0.797928C16.3858 1.6552 16.3875 2.5107 16.3759 3.36798C16.3709 3.81249 16.0218 4.1441 15.6033 4.14234C15.193 4.13881 14.8638 3.80719 14.8439 3.37327C14.8373 3.21275 14.8422 3.05223 14.8422 2.8776C14.7546 2.89348 14.7182 2.9658 14.6718 3.01519C12.8752 4.93435 11.0769 6.85174 9.28184 8.77266C9.11474 8.95258 8.93276 9.0884 8.6846 9.09369C8.35868 9.10075 8.10887 8.95434 7.96328 8.64389C7.81439 8.32815 7.85079 8.01946 8.05758 7.74076C8.10225 7.68079 8.15685 7.62787 8.20813 7.57319C9.99819 5.66638 11.7899 3.75957 13.5816 1.85276C13.6279 1.80337 13.6842 1.76633 13.7355 1.72399C13.7222 1.70635 13.709 1.68695 13.6958 1.66755Z" fill="#0045AC"/>
</g>
<defs>
<clipPath id="clip0_802_445">
<rect width="15.462" height="16.4928" fill="white" transform="translate(0.921875 0.0235596)"/>
</clipPath>
</defs>
</svg>
